<?xml version="1.0" encoding="UTF-8" standalone="no"?><!DOCTYPE svg PUBLIC "-//W3C//DTD SVG 1.1//EN" "http://www.w3.org/Graphics/SVG/1.1/DTD/svg11.dtd"><svg width="100%" height="100%" viewBox="0 0 600 600" version="1.1" xmlns="http://www.w3.org/2000/svg" xmlns:xlink="http://www.w3.org/1999/xlink" xml:space="preserve" xmlns:serif="http://www.serif.com/" style="fill-rule:evenodd;clip-rule:evenodd;stroke-linejoin:round;stroke-miterlimit:2;"><circle cx="300" cy="300" r="295" style="fill:url(#_Linear1);"/><g><g id="Vertebra"><path d="M405.001,490.969c0,-2.347 -1.905,-4.252 -4.252,-4.252c-0,-0 -34.744,5.645 -51.045,5.645c-15.985,0 -46.764,-5.645 -46.764,-5.645c-2.348,-0 -4.253,1.905 -4.253,4.252l-0,76.547c-0,2.347 1.905,4.252 4.253,4.252c-0,0 32.882,-6.157 49.184,-6.157c16.206,-0 48.625,6.157 48.625,6.157c2.347,0 4.252,-1.905 4.252,-4.252c0,-0 -9.578,-25.906 -9.578,-38.664c0,-12.51 9.578,-37.883 9.578,-37.883Z" style="fill:#4f16e7;"/><path d="M273.363,491.713c0,-4.586 -4.976,-4.093 -7.962,-4.093l-24.22,6.828c-2.986,-0 -15.121,12.07 -15.121,16.656l-21.85,55.053c-1.663,4.815 0.071,8.633 5.41,8.309c0,-0 40.396,-39.962 49.272,-31.614c3.509,3.301 7.783,25.746 12.937,25.462c6.15,-0.339 1.534,-76.601 1.534,-76.601Z" style="fill:#4f16e7;"/></g><g id="Vertebra1" serif:id="Vertebra"><path d="M402.911,397.271c-0,-2.347 -1.906,-4.253 -4.253,-4.253c0,0 -34.743,5.646 -51.045,5.646c-15.985,-0 -46.764,-5.646 -46.764,-5.646c-2.347,0 -4.252,1.906 -4.252,4.253l-0,76.546c-0,2.347 1.905,4.253 4.252,4.253c0,-0 32.883,-6.158 49.185,-6.158c16.206,0 48.624,6.158 48.624,6.158c2.347,-0 4.253,-1.906 4.253,-4.253c-0,0 -9.578,-25.906 -9.578,-38.664c0,-12.51 9.578,-37.882 9.578,-37.882Z" style="fill:#5423ff;"/><path d="M271.273,398.014c-0,-4.585 -4.977,-4.092 -7.963,-4.092l-24.22,6.827c-2.985,0 -15.121,12.071 -15.121,16.656l-21.849,55.053c-1.663,4.816 0.07,8.634 5.41,8.309c0,0 40.396,-39.962 49.272,-31.613c3.508,3.3 7.783,25.745 12.937,25.461c6.149,-0.338 1.534,-76.601 1.534,-76.601Z" style="fill:#5423ff;"/></g><g id="Vertebra2" serif:id="Vertebra"><path d="M399.668,304.108c-0,-2.347 -1.906,-4.252 -4.253,-4.252c-0,-0 -34.743,5.645 -51.045,5.645c-15.985,0 -46.764,-5.645 -46.764,-5.645c-2.347,-0 -4.253,1.905 -4.253,4.252l0,76.546c0,2.347 1.906,4.253 4.253,4.253c-0,-0 32.883,-6.157 49.184,-6.157c16.206,-0 48.625,6.157 48.625,6.157c2.347,-0 4.253,-1.906 4.253,-4.253c-0,0 -9.578,-25.905 -9.578,-38.663c-0,-12.51 9.578,-37.883 9.578,-37.883Z" style="fill:#6b42fd;"/><path d="M268.03,304.852c-0,-4.586 -4.977,-4.093 -7.963,-4.093l-24.22,6.828c-2.986,-0 -15.121,12.07 -15.121,16.656l-21.849,55.053c-1.664,4.815 0.07,8.633 5.41,8.309c-0,-0 40.396,-39.963 49.271,-31.614c3.509,3.301 7.784,25.746 12.937,25.462c6.15,-0.339 1.535,-76.601 1.535,-76.601Z" style="fill:#6b42fd;"/></g><g id="Vertebra3" serif:id="Vertebra"><path d="M398.738,213.203c0,-2.347 -1.905,-4.252 -4.252,-4.252c-0,-0 -34.744,5.645 -51.045,5.645c-15.985,0 -46.764,-5.645 -46.764,-5.645c-2.348,-0 -4.253,1.905 -4.253,4.252l-0,76.547c-0,2.347 1.905,4.252 4.253,4.252c-0,0 32.883,-6.157 49.184,-6.157c16.206,-0 48.625,6.157 48.625,6.157c2.347,0 4.252,-1.905 4.252,-4.252c0,-0 -9.578,-25.906 -9.578,-38.664c0,-12.51 9.578,-37.883 9.578,-37.883Z" style="fill:#8665ff;"/><path d="M267.1,213.947c0,-4.586 -4.976,-4.093 -7.962,-4.093l-24.22,6.828c-2.986,-0 -15.121,12.07 -15.121,16.656l-21.85,55.053c-1.663,4.815 0.071,8.633 5.41,8.309c0,-0 40.396,-39.963 49.272,-31.614c3.509,3.301 7.783,25.746 12.937,25.462c6.15,-0.339 1.534,-76.601 1.534,-76.601Z" style="fill:#8665ff;"/></g><g id="Vertebra4" serif:id="Vertebra"><path d="M397.352,120.581c-0,-2.347 -1.906,-4.253 -4.253,-4.253c0,0 -34.743,5.646 -51.045,5.646c-15.985,-0 -46.764,-5.646 -46.764,-5.646c-2.347,0 -4.252,1.906 -4.252,4.253l-0,76.546c-0,2.347 1.905,4.253 4.252,4.253c0,-0 32.883,-6.158 49.185,-6.158c16.206,0 48.624,6.158 48.624,6.158c2.347,-0 4.253,-1.906 4.253,-4.253c-0,-0 -9.578,-25.906 -9.578,-38.664c0,-12.51 9.578,-37.882 9.578,-37.882Z" style="fill:#9273ff;"/><path d="M265.714,121.324c-0,-4.586 -4.977,-4.092 -7.963,-4.092l-24.22,6.827c-2.985,0 -15.121,12.071 -15.121,16.656l-21.849,55.053c-1.663,4.816 0.07,8.634 5.41,8.309c0,0 40.396,-39.962 49.272,-31.613c3.508,3.3 7.783,25.745 12.937,25.461c6.149,-0.339 1.534,-76.601 1.534,-76.601Z" style="fill:#9273ff;"/></g><g id="Vertebra5" serif:id="Vertebra"><path d="M396.397,29.767c0,-2.347 -1.905,-4.252 -4.252,-4.252c-0,-0 -34.744,5.645 -51.045,5.645c-15.985,0 -46.764,-5.645 -46.764,-5.645c-2.347,-0 -4.253,1.905 -4.253,4.252l0,76.547c0,2.347 1.906,4.252 4.253,4.252c-0,0 32.883,-6.157 49.184,-6.157c16.206,-0 48.625,6.157 48.625,6.157c2.347,0 4.252,-1.905 4.252,-4.252c0,-0 -9.577,-25.906 -9.577,-38.664c-0,-12.51 9.577,-37.883 9.577,-37.883Z" style="fill:#b5a1ff;"/><path d="M264.76,30.511c-0,-4.586 -4.977,-4.093 -7.963,-4.093l-24.22,6.828c-2.986,0 -15.121,12.07 -15.121,16.656l-21.849,55.053c-1.664,4.815 0.07,8.634 5.41,8.309c-0,-0 40.396,-39.962 49.271,-31.613c3.509,3.3 7.784,25.745 12.937,25.461c6.15,-0.339 1.535,-76.601 1.535,-76.601Z" style="fill:#b5a1ff;"/></g></g><defs><linearGradient id="_Linear1" x1="0" y1="0" x2="1" y2="0" gradientUnits="userSpaceOnUse" gradientTransform="matrix(400.805,-0.00202327,0.00202327,400.805,304.999,320.666)"><stop offset="0" style="stop-color:#000046;stop-opacity:1"/><stop offset="0.45" style="stop-color:#080867;stop-opacity:1"/><stop offset="1" style="stop-color:#1a1ab7;stop-opacity:1"/></linearGradient></defs></svg>